<svg width="18" height="19" viewBox="0 0 18 19" fill="none" xmlns="http://www.w3.org/2000/svg">
<path d="M7.71758 3.39393L1.36508 13.9989C1.2341 14.2258 1.1648 14.4829 1.16407 14.7448C1.16334 15.0067 1.23119 15.2643 1.3609 15.4918C1.4906 15.7194 1.67762 15.909 1.90336 16.0418C2.12909 16.1746 2.38568 16.2461 2.64758 16.2489H15.3526C15.6145 16.2461 15.8711 16.1746 16.0968 16.0418C16.3225 15.909 16.5096 15.7194 16.6393 15.4918C16.769 15.2643 16.8368 15.0067 16.8361 14.7448C16.8354 14.4829 16.766 14.2258 16.6351 13.9989L10.2826 3.39393C10.1489 3.17351 9.96062 2.99127 9.73597 2.8648C9.51133 2.73832 9.25788 2.67188 9.00008 2.67188C8.74227 2.67188 8.48882 2.73832 8.26418 2.8648C8.03953 2.99127 7.85128 3.17351 7.71758 3.39393V3.39393Z" stroke="#FF475D" stroke-width="1.5" stroke-linecap="round" stroke-linejoin="round"/>
<path d="M9 7.25V10.25" stroke="#FF475D" stroke-width="1.5" stroke-linecap="round" stroke-linejoin="round"/>
<path d="M9 13.25H9.00833" stroke="#FF475D" stroke-width="1.5" stroke-linecap="round" stroke-linejoin="round"/>
</svg>
