<svg width="32" height="32" viewBox="0 0 32 32" fill="none" xmlns="http://www.w3.org/2000/svg">
<rect width="32" height="32" rx="16" fill="#2E1E91"/>
<path d="M12.8933 9.84252C12.1872 10.0513 11.6341 10.6157 11.4494 11.3155C10.9842 13.0804 11.5084 15.2667 13.0082 17.8135C14.506 20.3568 16.1727 21.8947 17.9614 22.3843C18.6758 22.5798 19.4549 22.3905 19.9934 21.8901L20.622 21.3066C21.1346 20.8306 21.2097 20.0484 20.7966 19.4865L19.8883 18.2528C19.5335 17.7709 18.9063 17.5635 18.3263 17.7377L16.9005 18.1648C16.5286 18.2734 16.2055 17.9919 16.0833 17.8861C15.7879 17.6295 15.4638 17.2024 15.1192 16.6178C14.3802 15.3631 14.434 14.892 14.4515 14.7373C14.4703 14.5718 14.5489 14.4182 14.6736 14.3047L15.7334 13.336C16.1769 12.9305 16.3075 12.2939 16.0589 11.752L15.4195 10.3576C15.1289 9.72379 14.397 9.39763 13.7199 9.59772L12.8933 9.84252Z" stroke="white" stroke-width="1.25714" stroke-miterlimit="10"/>
</svg>
