<svg width="24" height="24" viewBox="0 0 24 24" fill="none" xmlns="http://www.w3.org/2000/svg">
<path fill-rule="evenodd" clip-rule="evenodd" d="M3.38594 12.4627V11.5382V11.0981V8.375L0.1104 11.651C0.0700798 11.6899 0.0412802 11.7302 0.0240001 11.7701C0.00864005 11.808 0 11.8517 0 11.9016V12.0936C0 12.1968 0.0412803 12.2894 0.106561 12.3547L0.13296 12.3787L0.136801 12.3811L0.13728 12.3821L0.140161 12.3845L0.14352 12.3869H0.144001L0.146881 12.3893L0.147361 12.3897L0.149761 12.3917L0.150722 12.3926L0.153121 12.3945L0.154081 12.3955L0.156001 12.3969L0.157921 12.3974L0.158881 12.3989L0.16128 12.4003L0.162241 12.4013L0.164641 12.4027L0.165602 12.4037L0.167042 12.4046L0.16896 12.4056H0.169441L0.1704 12.4061L0.175681 12.4099L0.176641 12.4104L0.179042 12.4123L0.180482 12.4128L0.182401 12.4137L0.184321 12.4147L0.185761 12.4157C0.222241 12.4363 0.261601 12.4507 0.303841 12.4574V12.4579L0.319682 12.4603H0.322082L0.324002 12.4608L0.326882 12.4613H0.327841H0.331682L0.332163 12.4617L0.336482 12.4622L0.340322 12.4627H0.341281L0.345122 12.4632H0.346082H0.348962L0.350882 12.4637H0.353281H0.356163H0.357122L0.360483 12.4641H0.361442H0.365281H0.366242H0.370562H3.38594V12.4627Z" fill="#0FD197"/>
<path fill-rule="evenodd" clip-rule="evenodd" d="M4.26803 7.64352V10.6599H6.03012C6.08004 10.6599 6.12372 10.6512 6.15924 10.6359C6.19956 10.6191 6.24036 10.5893 6.2802 10.5495L9.55574 7.27344H6.39252H4.63715C4.53395 7.27344 4.44131 7.31424 4.37603 7.38L4.35731 7.3992L4.35491 7.40304L4.35203 7.4064L4.34915 7.41024L4.34819 7.41072L4.34627 7.4136L4.34339 7.41744L4.34147 7.42032L4.33907 7.42368L4.33811 7.42464L4.33619 7.42656L4.33523 7.428L4.33379 7.42992L4.33283 7.43184L4.33139 7.43328L4.33043 7.43568L4.32947 7.43664L4.32755 7.43952L4.32659 7.44048L4.32467 7.44336L4.32035 7.45008L4.31987 7.45104L4.31843 7.45296L4.31747 7.45488L4.31603 7.4568L4.31507 7.45872L4.31411 7.46016C4.29347 7.49616 4.27907 7.536 4.27235 7.57824L4.26995 7.59408V7.596L4.26947 7.59792L4.26899 7.60128L4.26851 7.60224V7.60608L4.26755 7.61088L4.26706 7.61472L4.26659 7.61904V7.62048V7.62336L4.26611 7.62528V7.62768V7.63008V7.63152L4.26562 7.63488V7.6392V7.64352H4.26803Z" fill="#0FD197"/>
<path fill-rule="evenodd" clip-rule="evenodd" d="M6.38694 13.6466C6.37878 13.6015 6.36294 13.5593 6.34086 13.5218L6.3399 13.5204L6.33894 13.5185L6.33798 13.517L6.33702 13.5151L6.3351 13.5127L6.33414 13.5118L6.33222 13.5089V13.5084L6.32982 13.505L6.3279 13.5017L6.32598 13.4983L6.3255 13.4978L6.32358 13.4959L6.3231 13.495L6.32166 13.4925L6.3207 13.4916L6.31926 13.4897L6.31782 13.4878L6.31734 13.4863L6.31542 13.4844L6.31446 13.4834L6.31302 13.481L6.31206 13.4805L6.30966 13.4777L6.30726 13.4743L6.30678 13.4733L6.28662 13.4518C6.21942 13.3846 6.12726 13.3438 6.02406 13.3438H4.26821H3.82805H1.10547L4.38101 16.6198C4.41893 16.6587 4.45973 16.6874 4.50149 16.7057C4.53845 16.721 4.58117 16.7292 4.63109 16.7292H6.39318V13.7129V13.7086V13.7081V13.7038V13.7028L6.3927 13.6994V13.6985V13.6956V13.6932V13.6913V13.6884V13.6874L6.39222 13.6836V13.6826L6.39174 13.6788V13.6783L6.39126 13.674H6.39078V13.6702L6.3903 13.6697L6.38982 13.6658L6.38934 13.6649L6.38694 13.6466Z" fill="#0FD197"/>
<path fill-rule="evenodd" clip-rule="evenodd" d="M11.5395 3.38546H12.464H12.9042H15.6263L12.3512 0.10992C12.3109 0.0700801 12.2706 0.0403205 12.2303 0.0235204C12.1943 0.00816031 12.1506 0 12.1011 0H11.9091C11.8074 0 11.7147 0.0412803 11.648 0.108001C11.5957 0.159361 11.5592 0.227521 11.5458 0.303842H11.5453L11.5429 0.322562L11.5424 0.324002L11.5419 0.327362L11.5415 0.328322V0.332162H11.541L11.5405 0.336962V0.340802V0.341762L11.54 0.345122V0.346562V0.348962L11.5395 0.350882V0.352802V0.355682V0.357122L11.5391 0.360482V0.361442V0.365282V0.365762V0.370083V3.38546H11.5395Z" fill="#0FD197"/>
<path fill-rule="evenodd" clip-rule="evenodd" d="M16.3601 4.26755H13.3438V6.02916C13.3438 6.07908 13.3519 6.12276 13.3678 6.15876C13.3841 6.19908 13.4143 6.23988 13.4537 6.27972L16.7297 9.55526V6.39204V4.63667C16.7297 4.53491 16.6879 4.44179 16.6217 4.37507C16.5694 4.32275 16.5017 4.28627 16.4258 4.27283L16.4215 4.27187L16.4095 4.26947H16.4071L16.4057 4.26899L16.4023 4.2685L16.4014 4.26803H16.398L16.3932 4.26706H16.3894L16.3851 4.26659H16.3836H16.3807L16.3788 4.26611H16.3764H16.3745H16.3726L16.3692 4.26562H16.3644H16.3601V4.26755Z" fill="#0FD197"/>
<path fill-rule="evenodd" clip-rule="evenodd" d="M7.27344 6.39215H10.2898H10.2941H10.2946H10.2984H10.2999L10.3032 6.39168H10.3047H10.3071H10.3095L10.3114 6.3912H10.3143H10.3152L10.3191 6.39071L10.3234 6.39023H10.3239L10.3277 6.38976L10.3287 6.38927H10.332L10.3335 6.38879L10.3359 6.38832L10.3378 6.38783H10.3397L10.3512 6.38639L10.3517 6.38591L10.3555 6.38544L10.3565 6.38495L10.3589 6.38447L10.3608 6.38351H10.3627L10.3651 6.38303H10.3666L10.3738 6.38112C10.4083 6.37344 10.441 6.36095 10.4703 6.34464L10.4712 6.34415L10.4736 6.34271L10.477 6.34079L10.4784 6.33983L10.4803 6.33887L10.4827 6.33744L10.4837 6.33647L10.4861 6.33456L10.4871 6.33407L10.489 6.33263L10.4938 6.32975L10.4971 6.32783L10.4981 6.32735L10.5005 6.32544L10.5015 6.32447L10.5039 6.32256L10.5048 6.32207L10.5063 6.32112L10.5067 6.32063L10.5087 6.31967L10.5106 6.31823L10.5125 6.31679L10.5135 6.31583L10.5159 6.31391L10.5163 6.31344L10.5197 6.31151L10.5202 6.31103L10.5231 6.30911V6.30863L10.5269 6.30623L10.5303 6.30335L10.5336 6.30047L10.537 6.29759L10.5403 6.29471L10.5533 6.28271C10.6191 6.21503 10.6603 6.12287 10.6603 6.02015V4.26478V3.82462V1.10156L7.3848 4.3771C7.34496 4.41694 7.31568 4.45774 7.2984 4.49806C7.28304 4.53406 7.27488 4.57774 7.27488 4.62718V6.39215H7.27344Z" fill="#0FD197"/>
<path fill-rule="evenodd" clip-rule="evenodd" d="M20.6133 11.54V12.4645V12.9047V15.6277L23.8893 12.3512C23.9267 12.3147 23.9555 12.2744 23.9738 12.2322C23.9906 12.1962 23.9992 12.1525 23.9992 12.1011V11.9091C23.9992 11.8059 23.9584 11.7133 23.8927 11.648L23.8663 11.624L23.8629 11.6216L23.8624 11.6211L23.8591 11.6187L23.8557 11.6163H23.8552L23.8528 11.6139L23.8519 11.6135L23.849 11.6115L23.848 11.6106L23.8461 11.6087L23.8442 11.6077L23.8423 11.6067L23.8403 11.6058L23.8389 11.6043L23.8365 11.6029L23.836 11.6019L23.8293 11.5976L23.8226 11.5933L23.8216 11.5928L23.8197 11.5909L23.8178 11.5904L23.8159 11.5895L23.8139 11.5885L23.8125 11.5875C23.7765 11.5669 23.7367 11.553 23.6944 11.5458V11.5453L23.6786 11.5429H23.6767H23.6747L23.6714 11.5424L23.6704 11.5419H23.6666L23.6661 11.5415L23.6618 11.541L23.6579 11.5405H23.657L23.6536 11.54H23.6522H23.6498L23.6479 11.5395H23.6455H23.6431H23.6416L23.6383 11.5391H23.6373H23.6335H23.633H23.6287H20.6133V11.54Z" fill="#0FD197"/>
<path fill-rule="evenodd" clip-rule="evenodd" d="M19.733 16.3606V13.3438H17.9714C17.9215 13.3438 17.8783 13.3524 17.8418 13.3678C17.802 13.3846 17.7607 13.4138 17.7213 13.4542L14.4453 16.7297H17.609H19.3644C19.4661 16.7297 19.5588 16.6884 19.6255 16.6217C19.6783 16.5708 19.7148 16.5031 19.7282 16.4263L19.7311 16.4105V16.4086L19.7316 16.4066V16.4038L19.7321 16.4028V16.399L19.733 16.3942L19.7335 16.3903L19.734 16.386V16.3846V16.3822L19.7345 16.3802V16.3778V16.3754V16.374L19.7349 16.3706V16.3692V16.3658V16.3606H19.733Z" fill="#0FD197"/>
<path fill-rule="evenodd" clip-rule="evenodd" d="M17.6094 7.27344V10.2903V10.2946V10.2951V10.2994V10.3003L17.6099 10.3037V10.3051V10.3075V10.3095L17.6103 10.3114V10.3138V10.3157L17.6108 10.3191V10.32L17.6113 10.3239V10.3243L17.6118 10.3287H17.6123V10.3325L17.6127 10.333V10.3368L17.6132 10.3378C17.6243 10.4218 17.6627 10.4967 17.7183 10.5519C17.7846 10.6186 17.8772 10.6599 17.9795 10.6599H19.7353H20.1755H22.8985L19.6225 7.38384C19.5865 7.3464 19.5457 7.3176 19.5035 7.29936C19.4675 7.28256 19.4238 7.2744 19.3724 7.2744H17.6094V7.27344Z" fill="#0FD197"/>
<path fill-rule="evenodd" clip-rule="evenodd" d="M12.4622 20.6172H11.5368H11.0981H8.375L11.6505 23.8932C11.688 23.9326 11.7297 23.9609 11.7715 23.9791C11.8075 23.9945 11.8512 24.0026 11.9006 24.0026H12.0926C12.1949 24.0026 12.288 23.9614 12.3537 23.8951C12.4065 23.8438 12.4425 23.7761 12.4565 23.6998H12.4569L12.4589 23.6839V23.6815L12.4593 23.6796L12.4598 23.6767L12.4603 23.6758V23.6724L12.4608 23.6719L12.4613 23.6676L12.4617 23.6633V23.6623L12.4622 23.659V23.6575V23.6551L12.4627 23.6532V23.6508V23.6479V23.6465L12.4632 23.6431V23.6422V23.6388V23.6378V23.6335V20.6172H12.4622Z" fill="#0FD197"/>
<path fill-rule="evenodd" clip-rule="evenodd" d="M7.64208 19.733H10.6613L10.6608 17.9714C10.6589 17.9215 10.6507 17.8778 10.6354 17.8418C10.6186 17.8015 10.5888 17.7607 10.549 17.7209L7.27344 14.4453V17.6081V19.3639C7.27344 19.4671 7.31424 19.5597 7.38 19.6255L7.3992 19.6437L7.40256 19.6466L7.40592 19.6495L7.40976 19.6524L7.41024 19.6533L7.41312 19.6553L7.41696 19.6581L7.41984 19.6601L7.4208 19.6605L7.4232 19.6625L7.42416 19.6634L7.42608 19.6649L7.428 19.6658L7.4352 19.6706L7.43616 19.6711L7.4424 19.6754C7.48272 19.7009 7.5288 19.7191 7.57728 19.7277L7.59552 19.7306L7.59696 19.7311L7.60032 19.7316L7.60128 19.7321H7.60512L7.60992 19.733L7.61376 19.7335L7.61808 19.734H7.61952H7.62192H7.62384H7.62576H7.62864H7.63008L7.63344 19.7345H7.63824H7.64208V19.733Z" fill="#0FD197"/>
<path fill-rule="evenodd" clip-rule="evenodd" d="M16.7292 17.6094H13.7129H13.7081H13.7076H13.7038H13.7028L13.6994 17.6099H13.698H13.6956H13.6932L13.6913 17.6103H13.6884H13.687L13.6836 17.6108H13.6826L13.6788 17.6113H13.6783L13.674 17.6118V17.6123H13.6697L13.6692 17.6127L13.6654 17.6132L13.6639 17.6137L13.6457 17.6156V17.6161C13.6001 17.6243 13.5578 17.6401 13.5209 17.6622L13.5199 17.6631L13.518 17.6641L13.5161 17.6655L13.5146 17.6665L13.5122 17.6684L13.5113 17.6689L13.5089 17.6708H13.5084L13.505 17.6732L13.5017 17.6751L13.5012 17.6756L13.4983 17.6775L13.4978 17.6785L13.4954 17.6799L13.4945 17.6809L13.4926 17.6823L13.4916 17.6833H13.4911L13.4892 17.6847L13.4878 17.6857L13.4863 17.6867L13.4839 17.6886L13.4834 17.6895L13.481 17.691L13.4801 17.6915L13.4777 17.6939L13.4738 17.6963L13.4734 17.6972L13.4518 17.7169C13.3846 17.7846 13.3438 17.8767 13.3438 17.9799V19.7353V20.176V22.8985L16.6193 19.623C16.6596 19.5827 16.6884 19.5419 16.7057 19.502C16.7211 19.466 16.7297 19.4223 16.7297 19.3729V17.6094H16.7292Z" fill="#0FD197"/>
</svg>
