<svg width="15" height="15" viewBox="0 0 15 15" fill="none" xmlns="http://www.w3.org/2000/svg">
<path d="M2.5 5.94828C2.5 5.12013 2.77644 4.32687 3.23269 3.74628C3.68741 3.16759 4.30838 2.8125 5.00975 2.8125C5.97934 2.8125 6.73141 3.44394 7.2195 4.43806L7.5 5.00941L7.7805 4.43806C8.26856 3.444 9.02063 2.8125 9.99025 2.8125C10.6917 2.8125 11.3127 3.16766 11.7674 3.74638C12.2236 4.327 12.5 5.12025 12.5 5.94828C12.5 6.07169 12.494 6.19406 12.4824 6.31534C12.6864 6.47413 12.8712 6.65647 13.0326 6.85831C13.0925 6.56322 13.125 6.25962 13.125 5.94828C13.125 4.98741 12.8059 4.05653 12.2588 3.36022C11.7102 2.66203 10.9201 2.1875 9.99025 2.1875C8.89534 2.1875 8.06275 2.80109 7.5 3.66681C6.93722 2.80105 6.10463 2.1875 5.00975 2.1875C4.08003 2.1875 3.28988 2.66195 2.74126 3.36013C2.19413 4.05638 1.875 4.98725 1.875 5.94828C1.875 8.086 3.29228 9.80347 4.64034 10.9592C5.32078 11.5426 5.99969 11.9968 6.50781 12.3052C6.76222 12.4595 6.97469 12.5778 7.12428 12.6578C7.19909 12.6979 7.25825 12.7284 7.29916 12.7491C7.31959 12.7594 7.33547 12.7673 7.34647 12.7728L7.35925 12.779L7.36281 12.7808L7.36422 12.7815L7.50434 12.8489L7.64306 12.7778L7.64409 12.7773L7.64762 12.7755L7.66028 12.7689C7.67122 12.7632 7.68703 12.7548 7.70738 12.7439C7.74813 12.722 7.80713 12.6898 7.88178 12.6478C8.03103 12.5636 8.24312 12.4396 8.49712 12.2789C8.67616 12.1657 8.87641 12.034 9.09044 11.8848C8.88066 11.7876 8.68284 11.6688 8.49988 11.5314C8.38119 11.6109 8.26834 11.6841 8.16303 11.7507C7.91897 11.9051 7.71603 12.0237 7.57478 12.1033C7.54581 12.1197 7.51947 12.1344 7.49587 12.1474C7.47287 12.1353 7.44725 12.1218 7.41916 12.1068C7.27825 12.0313 7.07566 11.9186 6.83203 11.7708C6.34406 11.4747 5.69484 11.04 5.04716 10.4847C3.73897 9.36316 2.5 7.80478 2.5 5.94828Z" fill="#F32629" stroke="#F32629" stroke-width="0.5"/>
<path d="M10.6246 9.68743C10.9697 9.68743 11.2496 9.40762 11.2496 9.06243C11.2496 8.71724 10.9697 8.43743 10.6246 8.43743C10.5504 8.43743 10.4793 8.45033 10.4133 8.47402L9.6949 7.75562L9.25293 8.19755L10.009 8.95362C10.0028 8.98896 9.99955 9.0253 9.99955 9.06243C9.99955 9.40762 10.2794 9.68743 10.6246 9.68743Z" fill="#F32629"/>
<path fill-rule="evenodd" clip-rule="evenodd" d="M10.1562 12.8125C11.6233 12.8125 12.8125 11.6233 12.8125 10.1562C12.8125 8.68925 11.6233 7.5 10.1562 7.5C8.68925 7.5 7.5 8.68925 7.5 10.1562C7.5 11.6233 8.68925 12.8125 10.1562 12.8125ZM10.1562 12.1875C11.2781 12.1875 12.1875 11.2781 12.1875 10.1562C12.1875 9.03441 11.2781 8.125 10.1562 8.125C9.03441 8.125 8.125 9.03441 8.125 10.1562C8.125 11.2781 9.03441 12.1875 10.1562 12.1875Z" fill="#F32629"/>
</svg>
