<svg xmlns="http://www.w3.org/2000/svg" width="18" height="18" viewBox="0 0 18 18" fill="none">
  <path d="M8.94549 11.7366C9.05683 11.6253 9.1125 11.4893 9.1125 11.3288C9.1125 11.1682 9.05683 11.0323 8.94549 10.9211C8.83427 10.8099 8.69839 10.7543 8.53784 10.7543C8.3773 10.7543 8.24141 10.8099 8.13019 10.9211C8.01886 11.0323 7.96319 11.1682 7.96319 11.3288C7.96319 11.4893 8.01886 11.6253 8.13019 11.7366C8.24141 11.8478 8.3773 11.9034 8.53784 11.9034C8.69839 11.9034 8.83427 11.8478 8.94549 11.7366ZM8.00427 9.30405H9.07141V5.03549H8.00427V9.30405ZM8.53909 15.2964C7.60427 15.2964 6.7256 15.119 5.90308 14.7642C5.08055 14.4095 4.36509 13.928 3.7567 13.3199C3.14832 12.7117 2.66662 11.9966 2.31162 11.1744C1.95674 10.3522 1.7793 9.47378 1.7793 8.53909C1.7793 7.60427 1.95668 6.7256 2.31144 5.90308C2.66621 5.08055 3.14767 4.36509 3.75582 3.7567C4.36397 3.14832 5.07913 2.66662 5.9013 2.31162C6.72347 1.95674 7.6019 1.7793 8.5366 1.7793C9.47141 1.7793 10.3501 1.95668 11.1726 2.31144C11.9951 2.66621 12.7106 3.14767 13.319 3.75582C13.9274 4.36397 14.4091 5.07913 14.7641 5.9013C15.1189 6.72347 15.2964 7.6019 15.2964 8.5366C15.2964 9.47141 15.119 10.3501 14.7642 11.1726C14.4095 11.9951 13.928 12.7106 13.3199 13.319C12.7117 13.9274 11.9966 14.4091 11.1744 14.7641C10.3522 15.1189 9.47378 15.2964 8.53909 15.2964ZM8.53784 14.2292C10.1267 14.2292 11.4725 13.6779 12.5752 12.5752C13.6779 11.4725 14.2292 10.1267 14.2292 8.53784C14.2292 6.94899 13.6779 5.60321 12.5752 4.5005C11.4725 3.39779 10.1267 2.84644 8.53784 2.84644C6.94899 2.84644 5.60321 3.39779 4.5005 4.5005C3.39779 5.60321 2.84644 6.94899 2.84644 8.53784C2.84644 10.1267 3.39779 11.4725 4.5005 12.5752C5.60321 13.6779 6.94899 14.2292 8.53784 14.2292Z" fill="#FF475D"/>
</svg>