<svg width="115" height="52" viewBox="0 0 115 52" fill="none" xmlns="http://www.w3.org/2000/svg">
<rect x="0.665" y="0.665" width="113.67" height="50.67" rx="7.335" fill="white"/>
<rect x="0.665" y="0.665" width="113.67" height="50.67" rx="7.335" stroke="#EFE8FF" stroke-width="1.33"/>
<path d="M42.3333 19H29.4167C29.1867 19 29 19.1867 29 19.4167V20.7037C29 21.4696 29.3512 22.1933 29.9529 22.6675L34.4167 26.15V32.75L37.3333 30.6667V26.15L41.7971 22.6675C42.3988 22.1933 42.75 21.4696 42.75 20.7037V19.4167C42.75 19.1867 42.5633 19 42.3333 19Z" stroke="#2E1E91" stroke-width="1.5" stroke-miterlimit="10" stroke-linejoin="round"/>
<path d="M53.136 31V19.8H60.16V21.176H54.832V24.712H59.248V26.072H54.832V31H53.136ZM62.7195 21.56C62.3995 21.56 62.1328 21.464 61.9195 21.272C61.7168 21.0693 61.6155 20.8187 61.6155 20.52C61.6155 20.2213 61.7168 19.976 61.9195 19.784C62.1328 19.5813 62.3995 19.48 62.7195 19.48C63.0395 19.48 63.3008 19.5813 63.5035 19.784C63.7168 19.976 63.8235 20.2213 63.8235 20.52C63.8235 20.8187 63.7168 21.0693 63.5035 21.272C63.3008 21.464 63.0395 21.56 62.7195 21.56ZM61.8715 31V23.064H63.5675V31H61.8715ZM65.8064 31V19.48H67.5024V31H65.8064ZM72.9781 31C72.1995 31 71.5808 30.8133 71.1221 30.44C70.6635 30.056 70.4341 29.3787 70.4341 28.408V24.488H69.0741V23.064H70.4341L70.6421 21.048H72.1301V23.064H74.3701V24.488H72.1301V28.408C72.1301 28.8453 72.2208 29.1493 72.4021 29.32C72.5941 29.48 72.9195 29.56 73.3781 29.56H74.2901V31H72.9781ZM79.6278 31.192C78.8491 31.192 78.1558 31.0213 77.5478 30.68C76.9504 30.328 76.4811 29.8427 76.1398 29.224C75.7984 28.6053 75.6278 27.8853 75.6278 27.064C75.6278 26.232 75.7931 25.5013 76.1238 24.872C76.4651 24.2427 76.9344 23.752 77.5318 23.4C78.1398 23.048 78.8438 22.872 79.6438 22.872C80.4224 22.872 81.0998 23.048 81.6758 23.4C82.2518 23.7413 82.6998 24.2 83.0198 24.776C83.3398 25.352 83.4998 25.9867 83.4998 26.68C83.4998 26.7867 83.4944 26.904 83.4838 27.032C83.4838 27.1493 83.4784 27.2827 83.4678 27.432H77.2918C77.3451 28.2 77.5958 28.7867 78.0438 29.192C78.5024 29.5867 79.0304 29.784 79.6278 29.784C80.1078 29.784 80.5078 29.6773 80.8278 29.464C81.1584 29.24 81.4038 28.9413 81.5638 28.568H83.2598C83.0464 29.3147 82.6198 29.9387 81.9798 30.44C81.3504 30.9413 80.5664 31.192 79.6278 31.192ZM79.6278 24.264C79.0624 24.264 78.5611 24.4347 78.1238 24.776C77.6864 25.1067 77.4198 25.608 77.3238 26.28H81.8038C81.7718 25.6613 81.5531 25.1707 81.1478 24.808C80.7424 24.4453 80.2358 24.264 79.6278 24.264ZM85.2595 31V23.064H86.7795L86.9235 24.568C87.2008 24.0453 87.5848 23.6347 88.0755 23.336C88.5768 23.0267 89.1795 22.872 89.8835 22.872V24.648H89.4195C88.9502 24.648 88.5288 24.728 88.1555 24.888C87.7928 25.0373 87.4995 25.2987 87.2755 25.672C87.0622 26.0347 86.9555 26.5413 86.9555 27.192V31H85.2595Z" fill="#2E1E91"/>
</svg>
