<svg xmlns="http://www.w3.org/2000/svg" width="16" height="16" viewBox="0 0 16 16" fill="none">
  <g clip-path="url(#clip0_917_7034)">
    <path d="M14.6673 8.00065H13.014C12.7226 8.00003 12.4391 8.09485 12.2067 8.27063C11.9744 8.4464 11.806 8.69345 11.7273 8.97398L10.1607 14.5473C10.1506 14.5819 10.1295 14.6123 10.1007 14.634C10.0718 14.6556 10.0367 14.6673 10.0007 14.6673C9.96459 14.6673 9.9295 14.6556 9.90065 14.634C9.8718 14.6123 9.85075 14.5819 9.84065 14.5473L6.16065 1.45398C6.15055 1.41937 6.1295 1.38895 6.10065 1.36732C6.0718 1.34568 6.03671 1.33398 6.00065 1.33398C5.96459 1.33398 5.9295 1.34568 5.90065 1.36732C5.8718 1.38895 5.85075 1.41937 5.84065 1.45398L4.27398 7.02732C4.19563 7.30675 4.02824 7.553 3.79723 7.72866C3.56622 7.90433 3.2842 7.99982 2.99398 8.00065H1.33398" stroke="#2E1E91" stroke-width="1.33333" stroke-linecap="round" stroke-linejoin="round"/>
  </g>
  <defs>
    <clipPath id="clip0_917_7034">
      <rect width="16" height="16" fill="white"/>
    </clipPath>
  </defs>
</svg>