<svg width="12" height="12" viewBox="0 0 12 12" fill="none" xmlns="http://www.w3.org/2000/svg">
<path d="M5.5 11.0144C8.53751 11.0144 11 8.55179 11 5.51463C11 2.47747 8.53731 0.0148926 5.5 0.0148926C2.46249 0.0146889 0 2.47747 0 5.51463C0 8.552 2.46269 11.0149 5.5 11.0149V11.0144ZM5.5 0.835057C8.08596 0.835057 10.1794 2.92838 10.1794 5.51421C10.1794 8.10005 8.08596 10.1934 5.5 10.1934C2.91404 10.1932 0.82062 8.09984 0.82062 5.51401C0.82062 2.92817 2.91404 0.835057 5.5 0.835057Z" fill="#F32629" stroke="#F0EEFF" stroke-width="0.03"/>
<path d="M5.49972 4.57029C6.81325 4.57029 7.79827 3.95457 7.79827 3.13378C7.79827 2.31299 6.81304 1.69727 5.49972 1.69727C4.1862 1.69727 3.20117 2.31299 3.20117 3.13378C3.20117 3.95478 4.1862 4.57029 5.49972 4.57029ZM5.49972 2.51811C6.40283 2.51811 6.97744 2.88757 6.97744 3.13383C6.97744 3.38007 6.40283 3.74955 5.49972 3.74955C4.59661 3.74955 4.022 3.38009 4.022 3.13383C4.022 2.88759 4.59661 2.51811 5.49972 2.51811Z" fill="#F32629" stroke="#F0EEFF" stroke-width="0.03"/>
<path d="M4.06316 8.83921C4.26847 8.83921 4.43264 8.79807 4.59679 8.71599C4.96627 8.51069 5.1714 8.05934 5.1714 7.52574C5.1714 7.03326 5.00723 6.49962 4.71983 6.00716C4.22733 5.14523 3.48838 4.61157 2.8317 4.61157C2.62639 4.61157 2.46222 4.65271 2.29807 4.7348C1.60025 5.1452 1.55932 6.29452 2.21599 7.44384C2.66755 8.26463 3.40627 8.83921 4.06316 8.83921ZM2.7085 5.43238C2.74964 5.43238 2.79058 5.39124 2.83173 5.39124C3.11912 5.39124 3.61162 5.7607 4.02204 6.37642C4.22735 6.74588 4.35037 7.15628 4.39151 7.48461C4.39151 7.73085 4.35037 7.89501 4.22735 7.97709C4.02204 8.10031 3.36538 7.73085 2.95496 6.9919C2.46226 6.25339 2.50339 5.55559 2.7085 5.43238Z" fill="#F32629" stroke="#F0EEFF" stroke-width="0.03"/>
<path d="M6.31973 5.9661C6.03233 6.45858 5.86816 6.99222 5.86816 7.48468C5.86816 8.05927 6.07347 8.46987 6.44277 8.67494C6.60694 8.75702 6.77111 8.79816 6.9764 8.79816C7.63309 8.79816 8.37205 8.26456 8.86454 7.40258C9.52122 6.25326 9.48029 5.10414 8.78245 4.69354C8.61829 4.61146 8.45412 4.57031 8.24883 4.57031C7.55121 4.57052 6.81242 5.14526 6.31973 5.9661ZM8.20786 5.39152C8.24901 5.39152 8.28995 5.39152 8.33109 5.43266C8.5364 5.55588 8.57734 6.25345 8.12578 7.03331C7.71536 7.77203 7.05847 8.1415 6.8534 8.0185C6.77131 7.97736 6.68923 7.77226 6.68923 7.52602C6.68923 7.1977 6.81246 6.7873 7.05871 6.41783C7.38705 5.76097 7.92066 5.39152 8.20786 5.39152Z" fill="#F32629" stroke="#F0EEFF" stroke-width="0.03"/>
</svg>
