<svg xmlns="http://www.w3.org/2000/svg" width="17" height="17" viewBox="0 0 17 17" fill="none">
  <path d="M8.18164 2.04492V6.13574" stroke="white" stroke-width="1.36361" stroke-linecap="round" stroke-linejoin="round"/>
  <path d="M8.18034 6.13672C6.81673 6.13672 6.13493 6.81852 5.45312 7.50033" stroke="white" stroke-width="1.36361" stroke-linecap="round" stroke-linejoin="round"/>
  <path d="M8.18164 6.13672C9.54525 6.13672 10.2271 6.81852 10.9089 7.50033" stroke="white" stroke-width="1.36361" stroke-linecap="round" stroke-linejoin="round"/>
  <path d="M5.45343 7.5C4.43073 7.5 3.74892 8.1818 3.40802 9.20451C3.06712 10.2272 3.06712 11.5908 3.40802 12.9544C3.74892 13.9771 4.43073 14.318 5.45343 14.318C6.13523 14.318 6.47614 13.9771 6.81704 13.2953V7.5" stroke="white" stroke-width="1.36361" stroke-linecap="round" stroke-linejoin="round"/>
  <path d="M10.9085 7.5C11.9312 7.5 12.613 8.1818 12.9539 9.20451C13.2948 10.2272 13.2948 11.5908 12.9539 12.9544C12.613 13.9771 11.9312 14.318 10.9085 14.318C10.2267 14.318 9.88582 13.9771 9.54492 13.2953V7.5" stroke="white" stroke-width="1.36361" stroke-linecap="round" stroke-linejoin="round"/>
  <path opacity="0.5" d="M4.43075 10.2266C4.2262 10.2266 4.08984 10.4311 4.08984 10.7038C4.08984 10.9765 4.2262 11.2493 4.43075 11.2493" stroke="white" stroke-width="1.36361" stroke-linecap="round" stroke-linejoin="round"/>
  <path opacity="0.5" d="M11.9316 10.2266C12.1362 10.2266 12.2725 10.4311 12.2725 10.7038C12.2725 10.9765 12.1362 11.2493 11.9316 11.2493" stroke="white" stroke-width="1.36361" stroke-linecap="round" stroke-linejoin="round"/>
</svg>