<?xml version="1.0" encoding="UTF-8"?>
<svg id="Layer_1" data-name="Layer 1" xmlns="http://www.w3.org/2000/svg" viewBox="0 0 130.9 130.9">
  <defs>
    <style>
      .cls-1 {
        fill: #2e1e91;
      }

      .cls-1, .cls-2 {
        stroke-width: 0px;
      }

      .cls-2 {
        fill: #efe8ff;
      }
    </style>
  </defs>
  <circle class="cls-2" cx="65.45" cy="65.45" r="64.52"/>
  <g>
    <path class="cls-1" d="m102.54,103.7H28.36c-4.94,0-8.96-4.02-8.96-8.96v-54.16c0-4.94,4.02-8.96,8.96-8.96h74.18c4.94,0,8.96,4.02,8.96,8.96v54.16c0,4.94-4.02,8.96-8.96,8.96ZM28.36,35.62c-2.74,0-4.96,2.22-4.96,4.96v54.16c0,2.74,2.23,4.96,4.96,4.96h74.18c2.74,0,4.96-2.23,4.96-4.96v-54.16c0-2.74-2.23-4.96-4.96-4.96H28.36Z"/>
    <path class="cls-1" d="m93.86,94.77h-56.82c-4.67,0-8.46-3.8-8.46-8.46v-20.8c0-4.67,3.8-8.46,8.46-8.46h56.82c4.67,0,8.46,3.8,8.46,8.46v20.8c0,4.67-3.8,8.46-8.46,8.46Zm-56.82-34.72c-3.01,0-5.46,2.45-5.46,5.46v20.8c0,3.01,2.45,5.46,5.46,5.46h56.82c3.01,0,5.46-2.45,5.46-5.46v-20.8c0-3.01-2.45-5.46-5.46-5.46h-56.82Z"/>
    <g>
      <path class="cls-1" d="m54.55,40.52h-22.73c-.96,0-1.74.78-1.74,1.74s.78,1.74,1.74,1.74h22.73c.96,0,1.74-.78,1.74-1.74s-.78-1.74-1.74-1.74Z"/>
      <path class="cls-1" d="m48.63,49.35h-16.8c-.96,0-1.74.78-1.74,1.74s.78,1.74,1.74,1.74h16.8c.96,0,1.74-.78,1.74-1.74s-.78-1.74-1.74-1.74Z"/>
    </g>
    <path class="cls-1" d="m93.04,51.42c-.53,0-1.04-.21-1.41-.59l-5.18-5.18c-.78-.78-.78-2.05,0-2.83.78-.78,2.05-.78,2.83,0l3.77,3.77,4.07-4.07c.78-.78,2.05-.78,2.83,0s.78,2.05,0,2.83l-5.49,5.49c-.38.38-.88.59-1.41.59Z"/>
    <g>
      <path class="cls-1" d="m39.19,75.23c-2.78,0-5.03-2.26-5.03-5.03s2.26-5.04,5.03-5.04,5.03,2.26,5.03,5.04-2.26,5.03-5.03,5.03Zm0-7.07c-1.12,0-2.03.91-2.03,2.04s.91,2.03,2.03,2.03,2.03-.91,2.03-2.03-.91-2.04-2.03-2.04Z"/>
      <path class="cls-1" d="m93.19,72.19h-41.39c-1.1,0-2-.9-2-2s.9-2,2-2h41.39c1.1,0,2,.9,2,2s-.9,2-2,2Z"/>
    </g>
    <g>
      <path class="cls-1" d="m39.19,89.5c-2.78,0-5.03-2.26-5.03-5.03s2.26-5.03,5.03-5.03,5.03,2.26,5.03,5.03-2.26,5.03-5.03,5.03Zm0-7.07c-1.12,0-2.03.91-2.03,2.03s.91,2.03,2.03,2.03,2.03-.91,2.03-2.03-.91-2.03-2.03-2.03Z"/>
      <path class="cls-1" d="m77.08,86.47h-25.28c-1.1,0-2-.9-2-2s.9-2,2-2h25.28c1.1,0,2,.9,2,2s-.9,2-2,2Z"/>
    </g>
  </g>
</svg>