<svg width="13" height="13" viewBox="0 0 13 13" fill="none" xmlns="http://www.w3.org/2000/svg">
<path d="M4.18864 8.50368C4.14241 8.361 3.98961 8.28292 3.84737 8.32929C3.7051 8.37566 3.62726 8.52889 3.67349 8.67157C3.87672 9.29895 4.27279 9.84571 4.80492 10.2335C5.33703 10.6212 5.97788 10.8301 6.63562 10.8301C6.7852 10.8301 6.90646 10.7085 6.90646 10.5584C6.90646 10.4084 6.7852 10.2868 6.63562 10.2868C6.09228 10.2868 5.56288 10.1143 5.12329 9.79396C4.68373 9.47364 4.35653 9.02197 4.18864 8.50368Z" fill="#F32629"/>
<path fill-rule="evenodd" clip-rule="evenodd" d="M6.5 1.08325L6.31307 1.26205L6.31207 1.26303L6.30969 1.26532L6.30088 1.27382C6.29327 1.28121 6.28214 1.29203 6.26779 1.30615C6.23908 1.33438 6.19737 1.37583 6.1445 1.42944C6.03877 1.53667 5.88838 1.6927 5.70816 1.88933C5.34801 2.28229 4.86739 2.83896 4.38617 3.49353C3.43457 4.78793 2.4375 6.5218 2.4375 8.14661C2.4375 10.2496 4.27808 11.9166 6.5 11.9166C8.72192 11.9166 10.5625 10.2496 10.5625 8.14661C10.5625 6.5218 9.56543 4.78793 8.61383 3.49353C8.13261 2.83896 7.65199 2.28229 7.29184 1.88933C7.11162 1.6927 6.96123 1.53667 6.8555 1.42944C6.80263 1.37583 6.76092 1.33438 6.73221 1.30615C6.71786 1.29203 6.70675 1.28121 6.69912 1.27382L6.69031 1.26532L6.68793 1.26303L6.5 1.08325ZM6.10694 2.25699C6.26581 2.08364 6.4005 1.94316 6.5 1.84161C6.5995 1.94316 6.73419 2.08364 6.89306 2.25699C7.24384 2.63974 7.71114 3.18113 8.17784 3.81593C9.12207 5.10028 10.0208 6.71038 10.0208 8.14661C10.0208 9.90776 8.46622 11.3733 6.5 11.3733C4.53378 11.3733 2.97917 9.90776 2.97917 8.14661C2.97917 6.71038 3.87793 5.10028 4.82216 3.81593C5.28886 3.18113 5.75616 2.63974 6.10694 2.25699Z" fill="#F32629" stroke="#F32629" stroke-width="0.5"/>
</svg>
