<svg width="13" height="12" viewBox="0 0 13 12" fill="none" xmlns="http://www.w3.org/2000/svg">
<path d="M6.88672 4.45703V6.76538" stroke="#FF475D" stroke-width="1.5" stroke-linecap="round" stroke-linejoin="round"/>
<path d="M6.88796 9.45695C7.11302 9.45695 7.29546 9.2847 7.29546 9.07222C7.29546 8.85975 7.11302 8.6875 6.88796 8.6875C6.66291 8.6875 6.48047 8.85975 6.48047 9.07222C6.48047 9.2847 6.66291 9.45695 6.88796 9.45695Z" stroke="#FF475D" stroke-width="1.5" stroke-linecap="round" stroke-linejoin="round"/>
<path d="M7.61015 1.41861C7.54175 1.29257 7.43785 1.1868 7.30987 1.11294C7.18189 1.03908 7.0348 1 6.88481 1C6.73481 1 6.58772 1.03908 6.45974 1.11294C6.33176 1.1868 6.22786 1.29257 6.15947 1.41861L1.67703 9.88255C1.61451 9.99968 1.58474 10.13 1.59056 10.261C1.59637 10.3921 1.63757 10.5195 1.71025 10.6313C1.78292 10.7431 1.88466 10.8355 2.00579 10.8997C2.12693 10.9639 2.26344 10.9979 2.40237 10.9983H11.3672C11.5062 10.9979 11.6427 10.9639 11.7638 10.8997C11.885 10.8355 11.9867 10.7431 12.0594 10.6313C12.132 10.5195 12.1732 10.3921 12.1791 10.261C12.1849 10.13 12.1551 9.99968 12.0926 9.88255L7.61015 1.41861Z" stroke="#FF475D" stroke-width="1.5" stroke-linecap="round" stroke-linejoin="round"/>
</svg>
